<?xml version="1.0" standalone="no"?>
<!DOCTYPE svg PUBLIC "-//W3C//DTD SVG 20010904//EN"
 "http://www.w3.org/TR/2001/REC-SVG-20010904/DTD/svg10.dtd">
<svg version="1.0" xmlns="http://www.w3.org/2000/svg"
 width="1145.000000pt" height="402.000000pt" viewBox="0 0 1145.000000 402.000000"
 preserveAspectRatio="xMidYMid meet">

<g transform="translate(0.000000,402.000000) scale(0.100000,-0.100000)"
fill="#000000" stroke="none">
<path d="M4440 3810 c-42 -10 -97 -70 -105 -114 -3 -17 -4 -772 -3 -1678 l3
-1647 21 -28 c11 -15 36 -38 54 -51 34 -23 34 -23 370 -20 l335 3 34 24 c69
49 64 -81 62 1751 l-3 1655 -21 38 c-40 71 -44 72 -397 74 -173 1 -331 -2
-350 -7z m580 -430 l0 -250 -250 0 -250 0 0 250 0 250 250 0 250 0 0 -250z m0
-1337 l0 -896 -237 6 c-131 4 -244 7 -250 7 -10 0 -13 185 -13 890 l0 890 250
0 250 0 0 -897z m0 -1328 l0 -245 -250 0 -250 0 0 245 0 245 250 0 250 0 0
-245z"/>
<path d="M3323 3599 c-30 -15 -48 -33 -62 -63 -21 -42 -21 -50 -21 -1598 l0
-1555 23 -33 c12 -18 35 -43 50 -54 28 -20 39 -21 372 -21 333 0 344 1 372 21
15 11 38 36 51 54 l22 33 -2 1566 -3 1566 -23 36 c-40 66 -60 69 -420 69 -301
0 -319 -1 -359 -21z m617 -369 l0 -200 -255 0 -255 0 0 200 0 200 255 0 255 0
0 -200z m-3 -777 c-4 -214 -7 -614 -7 -890 l0 -503 -245 0 -245 0 0 553 c0
303 -3 704 -7 890 l-6 337 258 0 258 0 -6 -387z m-7 -1788 l0 -195 -245 0
-245 0 0 195 0 195 245 0 245 0 0 -195z"/>
<path d="M9123 3416 c-247 -57 -371 -242 -349 -521 23 -286 155 -414 446 -432
354 -22 546 173 527 537 -12 219 -97 347 -266 401 -86 27 -269 35 -358 15z
m217 -194 c21 -10 45 -34 60 -62 24 -43 25 -52 25 -215 0 -157 -2 -173 -23
-216 -31 -63 -70 -83 -150 -77 -72 5 -95 22 -125 88 -16 35 -22 72 -25 171 -7
202 20 310 81 322 55 11 124 6 157 -11z"/>
<path d="M5615 2945 l0 -475 148 0 147 0 0 185 0 185 160 0 160 0 0 95 0 95
-160 0 -161 0 3 93 3 92 193 3 192 2 0 100 0 100 -342 0 -343 0 0 -475z"/>
<path d="M6400 3083 c0 -365 5 -409 54 -483 59 -89 155 -128 336 -137 223 -11
381 33 443 122 54 78 59 119 64 493 l5 342 -151 0 -151 0 0 -346 c0 -228 -4
-352 -11 -366 -24 -44 -143 -63 -214 -34 -19 8 -44 30 -55 48 -19 31 -20 50
-20 366 l0 332 -150 0 -150 0 0 -337z"/>
<path d="M7674 3405 c-116 -21 -146 -43 -190 -138 -21 -48 -26 -72 -26 -138 1
-67 5 -87 29 -130 45 -84 98 -118 267 -175 125 -42 146 -56 146 -94 0 -65 -27
-69 -270 -45 -80 7 -148 11 -152 7 -3 -4 -13 -45 -21 -92 -17 -103 -17 -103
91 -119 216 -33 380 -24 489 28 68 33 95 59 122 121 64 145 14 298 -118 364
-25 13 -89 37 -141 55 -52 17 -110 40 -128 51 -29 18 -33 25 -30 58 l3 37 178
3 c97 1 177 3 177 5 0 1 7 40 14 87 8 47 11 89 7 93 -15 15 -186 37 -281 36
-52 0 -127 -7 -166 -14z"/>
<path d="M8330 2945 l0 -475 150 0 150 0 0 475 0 475 -150 0 -150 0 0 -475z"/>
<path d="M9890 2945 l0 -475 138 0 137 0 -3 240 c-1 132 1 248 6 256 7 12 49
-46 178 -240 l168 -256 143 0 143 0 0 475 0 475 -140 0 -140 0 -1 -267 c0
-211 -3 -264 -12 -249 -7 10 -84 129 -173 265 l-161 246 -141 3 -142 3 0 -476z"/>
<path d="M7351 1988 c-157 -28 -371 -275 -596 -687 -37 -69 -86 -154 -108
-190 -51 -84 -61 -150 -26 -175 13 -9 32 -16 43 -16 29 0 88 69 132 154 25 50
46 78 59 81 11 2 98 6 193 10 l172 6 0 -89 c0 -80 2 -92 24 -115 73 -79 214
-23 373 147 l81 87 12 -55 c15 -73 63 -143 124 -181 44 -27 58 -30 130 -30 72
0 89 4 156 36 177 84 320 282 386 534 35 132 46 373 20 423 -12 23 -24 32 -41
32 -45 0 -63 -30 -69 -117 -17 -220 -68 -423 -139 -557 -44 -82 -130 -174
-192 -202 -94 -44 -182 -26 -211 43 -45 107 26 393 166 673 51 101 64 160 42
182 -16 16 -77 15 -97 -2 -45 -37 -204 -402 -245 -562 -13 -48 -26 -86 -29
-85 -3 1 -51 -45 -106 -101 -189 -196 -300 -238 -265 -100 14 56 19 68 117
304 82 198 95 248 71 272 -18 18 -73 15 -90 -5 -13 -15 -87 -177 -166 -364
l-20 -46 -93 -6 c-50 -4 -132 -7 -180 -7 l-88 0 90 150 c112 186 188 288 267
362 98 90 170 98 237 28 20 -21 38 -30 60 -30 64 0 73 46 19 108 -67 79 -129
105 -213 90z"/>
<path d="M9364 1986 c-17 -8 -44 -30 -62 -51 -34 -42 -305 -571 -373 -730 -23
-55 -44 -101 -45 -103 -1 -2 -28 15 -60 38 -72 50 -149 74 -207 65 -83 -14
-117 -50 -117 -125 0 -31 7 -46 34 -73 53 -54 110 -69 277 -74 212 -8 436 22
582 77 68 25 87 42 80 70 -10 37 -33 39 -143 14 -120 -27 -319 -58 -326 -51
-3 3 27 58 66 123 89 147 390 749 390 780 0 22 -33 54 -55 54 -5 -1 -24 -7
-41 -14z m-612 -913 l53 -28 -42 -3 c-72 -5 -171 53 -120 71 15 5 41 -4 109
-40z"/>
<path d="M10130 1989 c-316 -29 -624 -147 -603 -229 12 -46 35 -44 201 13 184
64 271 83 436 98 137 12 206 5 239 -21 l22 -19 -23 -44 c-34 -65 -28 -81 32
-85 45 -3 50 -1 87 37 86 91 48 196 -84 236 -61 18 -196 25 -307 14z"/>
<path d="M6143 1890 c-18 -10 -42 -38 -54 -61 -42 -83 -36 -315 17 -679 21
-149 22 -166 8 -181 -9 -10 -14 -28 -12 -41 3 -21 8 -23 63 -23 77 0 124 19
131 54 6 31 -3 15 115 192 146 217 327 554 357 663 8 29 7 39 -5 51 -23 24
-50 18 -92 -20 -30 -28 -66 -90 -159 -278 -118 -238 -237 -436 -253 -420 -11
12 -26 134 -39 310 -9 127 -8 169 5 248 8 52 15 111 15 131 0 73 -35 92 -97
54z"/>
<path d="M9977 1728 c-125 -165 -437 -733 -437 -793 0 -8 11 -22 25 -31 24
-15 28 -15 70 1 25 9 54 29 66 43 21 27 213 411 335 671 67 144 71 173 21 179
-22 3 -34 -8 -80 -70z"/>
<path d="M826 439 c34 -37 66 -47 360 -104 314 -61 358 -65 402 -39 47 27 82
103 50 105 -7 0 -4 4 7 9 12 5 -50 9 -160 9 -120 1 -175 5 -165 11 10 7 -22
10 -100 11 -78 1 -104 4 -80 9 20 4 -42 8 -149 9 l-184 1 19 -21z m471 -15
c-3 -3 -12 -4 -19 -1 -8 3 -5 6 6 6 11 1 17 -2 13 -5z"/>
<path d="M1188 453 c7 -3 16 -2 19 1 4 3 -2 6 -13 5 -11 0 -14 -3 -6 -6z"/>
<path d="M1348 433 c7 -3 16 -2 19 1 4 3 -2 6 -13 5 -11 0 -14 -3 -6 -6z"/>
<path d="M2860 370 c0 -5 -28 -10 -62 -11 -47 -1 -57 -3 -38 -9 16 -5 -11 -9
-80 -10 -69 -1 -96 -5 -80 -10 17 -6 -1 -9 -60 -10 -59 -1 -77 -4 -60 -10 16
-5 -20 -9 -100 -10 -69 -2 -115 -5 -102 -7 12 -2 22 -9 22 -14 0 -10 552 -13
614 -2 38 6 116 67 116 91 0 8 -27 12 -85 12 -50 0 -85 -4 -85 -10z"/>
</g>
</svg>
